<svg width="24" height="24" viewBox="0 0 24 24" fill="none" xmlns="http://www.w3.org/2000/svg">
<rect width="23.5232" height="24" fill="white"/>
<path d="M10.0856 3.86001L1.78384 18C1.61268 18.3024 1.52211 18.6453 1.52116 18.9945C1.5202 19.3437 1.60888 19.6871 1.77838 19.9905C1.94788 20.2939 2.19229 20.5468 2.48729 20.7239C2.78229 20.901 3.11761 20.9962 3.45987 21H20.0633C20.4056 20.9962 20.7409 20.901 21.0359 20.7239C21.3309 20.5468 21.5753 20.2939 21.7448 19.9905C21.9143 19.6871 22.003 19.3437 22.002 18.9945C22.0011 18.6453 21.9105 18.3024 21.7393 18L13.4376 3.86001C13.2629 3.56611 13.0169 3.32313 12.7233 3.15449C12.4297 2.98585 12.0985 2.89726 11.7616 2.89726C11.4247 2.89726 11.0935 2.98585 10.7999 3.15449C10.5063 3.32313 10.2603 3.56611 10.0856 3.86001Z" fill="#058E2C"/>
</svg>
