<svg width="37" height="37" viewBox="0 0 37 37" fill="none" xmlns="http://www.w3.org/2000/svg">
<path d="M34.7578 14.045L28.5722 20.2307" stroke="#B4DDC0" stroke-width="1.8" stroke-linecap="round" stroke-linejoin="round"/>
<path d="M21.1329 2.496C21.9591 1.66978 23.2987 1.66978 24.1249 2.496L35.5486 13.9197L32.2415 13.9197L28.8051 17.3561L28.4466 21.0217L16.6058 32.8625C15.7795 33.6887 14.4399 33.6886 14.2793 33.528L3.68607 22.9348C2.85985 22.1086 2.85985 20.7691 3.68607 19.9428L21.1329 2.496Z" stroke="black" stroke-width="1.8" stroke-linecap="round" stroke-linejoin="round"/>
<path d="M21.9465 5.55949C22.4032 5.10277 22.8957 4.85483 23.0466 5.00568L30.1993 12.1584C30.3502 12.3093 30.1022 12.8018 29.6455 13.2585L15.327 27.5769C14.8703 28.0337 14.3778 28.2816 14.2269 28.1308L7.07423 20.978C6.92338 20.8272 7.17132 20.3347 7.62803 19.8779L21.9465 5.55949Z" fill="#B4DDC0" stroke="black" stroke-width="1.8" stroke-linecap="round" stroke-linejoin="round"/>
<path d="M3.32812 22.9619L2.1586 24.1314C1.70188 24.5882 1.50079 25.1275 1.70943 25.3362L11.6021 35.2288C11.8108 35.4375 12.3501 35.2364 12.8068 34.7797L13.9764 33.6101" stroke="black" stroke-width="1.8" stroke-linecap="round" stroke-linejoin="round"/>
</svg>
