<svg width="32" height="32" viewBox="0 0 32 32" fill="none" xmlns="http://www.w3.org/2000/svg">
<rect x="5" y="9" width="22" height="11" fill="#B4DDC0"/>
<path d="M16 10.6667C22.6274 10.6667 28 8.8758 28 6.66666C28 4.45752 22.6274 2.66666 16 2.66666C9.37258 2.66666 4 4.45752 4 6.66666C4 8.8758 9.37258 10.6667 16 10.6667Z" fill="#B4DDC0" stroke="black" stroke-width="1.8" stroke-linecap="round" stroke-linejoin="round"/>
<path d="M28 16C28 18.2133 22.6667 20 16 20C9.33333 20 4 18.2133 4 16" stroke="black" stroke-width="1.8" stroke-linecap="round" stroke-linejoin="round"/>
<path d="M4 6.66666V25.3333C4 27.5467 9.33333 29.3333 16 29.3333C22.6667 29.3333 28 27.5467 28 25.3333V6.66666" stroke="black" stroke-width="1.8" stroke-linecap="round" stroke-linejoin="round"/>
</svg>
